<svg width="18" height="18" viewBox="0 0 18 18" fill="none" xmlns="http://www.w3.org/2000/svg">
<path d="M3.99398 7.94718C4.04546 7.32953 4.07119 7.0207 4.22816 6.79832C4.31009 6.68225 4.41582 6.58497 4.53829 6.51296C4.77294 6.375 5.08283 6.375 5.70263 6.375H12.2974C12.9172 6.375 13.2271 6.375 13.4617 6.51296C13.5842 6.58497 13.6899 6.68225 13.7718 6.79832C13.9288 7.0207 13.9545 7.32953 14.006 7.94718L14.1579 9.76943C14.2557 10.9429 14.3046 11.5297 14.2268 12.012C13.9715 13.5944 12.7963 14.8716 11.2406 15.2574C10.7664 15.375 10.1776 15.375 9 15.375V15.375C7.82242 15.375 7.23364 15.375 6.75944 15.2574C5.20371 14.8716 4.02851 13.5944 3.77325 12.012C3.69544 11.5297 3.74434 10.9429 3.84213 9.76943L3.99398 7.94718Z" stroke="#333333"/>
<path d="M6.375 5.25L6.375 4.875C6.375 3.42525 7.55025 2.25 9 2.25V2.25C10.4497 2.25 11.625 3.42525 11.625 4.875L11.625 5.25" stroke="#333333"/>
</svg>
