<svg width="81" height="48" viewBox="0 0 81 48" fill="none" xmlns="http://www.w3.org/2000/svg">
<g clip-path="url(#clip0_2_65)">
<path d="M1.93182 30.4545H3.46591L8.7429 43.125H8.87074L14.1477 30.4545H15.6818V45H14.4318V33.2599H14.3182L9.41051 45H8.20312L3.29545 33.2599H3.18182V45H1.93182V30.4545ZM21.549 45V30.4545H29.9865V31.6477H22.8771V37.1236H29.5391V38.3168H22.8771V43.8068H30.1286V45H21.549ZM35.424 45V30.4545H40.1186C41.1508 30.4545 42.0125 30.6416 42.7038 31.0156C43.3999 31.3849 43.9231 31.8987 44.2734 32.5568C44.6286 33.2102 44.8061 33.9607 44.8061 34.8082C44.8061 35.6558 44.6286 36.4039 44.2734 37.0526C43.9231 37.7012 43.4022 38.2079 42.7109 38.5724C42.0196 38.937 41.1626 39.1193 40.1399 39.1193H36.1413V37.9048H40.1044C40.862 37.9048 41.4917 37.7794 41.9936 37.5284C42.5002 37.2775 42.8767 36.92 43.1229 36.456C43.3738 35.992 43.4993 35.4427 43.4993 34.8082C43.4993 34.1738 43.3738 33.6198 43.1229 33.1463C42.8719 32.6681 42.4931 32.2988 41.9865 32.0384C41.4846 31.7779 40.8501 31.6477 40.0831 31.6477H36.7521V45H35.424ZM41.8374 38.4375L45.4169 45H43.8828L40.3388 38.4375H41.8374ZM61.4332 35H60.098C59.9986 34.5028 59.8187 34.0436 59.5582 33.6222C59.3026 33.196 58.9806 32.8243 58.5923 32.5071C58.2041 32.1899 57.7637 31.9437 57.2713 31.7685C56.7789 31.5933 56.2462 31.5057 55.6733 31.5057C54.7547 31.5057 53.9167 31.7448 53.1591 32.223C52.4063 32.7012 51.8026 33.4044 51.348 34.3324C50.8982 35.2557 50.6733 36.3873 50.6733 37.7273C50.6733 39.0767 50.8982 40.2131 51.348 41.1364C51.8026 42.0597 52.4063 42.7604 53.1591 43.2386C53.9167 43.7121 54.7547 43.9489 55.6733 43.9489C56.2462 43.9489 56.7789 43.8613 57.2713 43.6861C57.7637 43.5109 58.2041 43.267 58.5923 42.9545C58.9806 42.6373 59.3026 42.2656 59.5582 41.8395C59.8187 41.4134 59.9986 40.9517 60.098 40.4545H61.4332C61.3149 41.1222 61.0923 41.7448 60.7656 42.3224C60.4437 42.8954 60.0317 43.3973 59.5298 43.8281C59.0327 44.259 58.4598 44.5952 57.8111 44.8366C57.1624 45.0781 56.4498 45.1989 55.6733 45.1989C54.4517 45.1989 53.3674 44.8935 52.4205 44.2827C51.4735 43.6671 50.7301 42.8007 50.1903 41.6832C49.6553 40.5658 49.3878 39.2472 49.3878 37.7273C49.3878 36.2074 49.6553 34.8887 50.1903 33.7713C50.7301 32.6539 51.4735 31.7898 52.4205 31.179C53.3674 30.5634 54.4517 30.2557 55.6733 30.2557C56.4498 30.2557 57.1624 30.3764 57.8111 30.6179C58.4598 30.8546 59.0327 31.1908 59.5298 31.6264C60.0317 32.0573 60.4437 32.5592 60.7656 33.1321C61.0923 33.705 61.3149 34.3277 61.4332 35ZM66.5529 45V30.4545H67.881V37.1236H76.1339V30.4545H77.462V45H76.1339V38.3168H67.881V45H66.5529Z" fill="#333333"/>
<rect x="1.375" y="1.375" width="35.25" height="23.25" rx="2.625" fill="#333333" stroke="#333333" stroke-width="0.75"/>
<rect x="0.375" y="0.375" width="35.25" height="23.25" rx="2.625" fill="white" stroke="#333333" stroke-width="0.75"/>
<path d="M7.17898 13H6.25568L8.92614 5.72727H9.83523L12.5057 13H11.5824L9.40909 6.87784H9.35227L7.17898 13ZM7.51989 10.1591H11.2415V10.9403H7.51989V10.1591ZM14.3629 5.72727V13H13.5249V5.72727H14.3629ZM18.2701 7.54545V8.25568H15.4434V7.54545H18.2701ZM16.2672 6.23864H17.1053V11.4375C17.1053 11.6742 17.1396 11.8518 17.2083 11.9702C17.2793 12.0862 17.3693 12.1643 17.4782 12.2045C17.5894 12.2424 17.7066 12.2614 17.8297 12.2614C17.9221 12.2614 17.9978 12.2566 18.057 12.2472C18.1162 12.2353 18.1635 12.2259 18.199 12.2188L18.3695 12.9716C18.3127 12.9929 18.2334 13.0142 18.1316 13.0355C18.0298 13.0592 17.9007 13.071 17.7445 13.071C17.5078 13.071 17.2757 13.0201 17.0485 12.9183C16.8236 12.8165 16.6365 12.6615 16.4874 12.4531C16.3406 12.2448 16.2672 11.982 16.2672 11.6648V6.23864Z" fill="#333333"/>
<rect x="57.375" y="1.375" width="23.25" height="23.25" rx="2.625" fill="#333333" stroke="#333333" stroke-width="0.75"/>
<rect x="56.375" y="0.375" width="23.25" height="23.25" rx="2.625" fill="white" stroke="#333333" stroke-width="0.75"/>
<path d="M62.8807 5.72727H63.9318L66.4034 11.7642H66.4886L68.9602 5.72727H70.0114V13H69.1875V7.47443H69.1165L66.8438 13H66.0483L63.7756 7.47443H63.7045V13H62.8807V5.72727Z" fill="#333333"/>
<path d="M45.5768 16.1697V9.87571H46.4269V16.1697H45.5768ZM42.8524 13.4453V12.6001H49.1514V13.4453H42.8524Z" fill="#333333"/>
</g>
<defs>
<clipPath id="clip0_2_65">
<rect width="81" height="48" fill="white"/>
</clipPath>
</defs>
</svg>
