<svg width="62" height="36" viewBox="0 0 62 36" fill="none" xmlns="http://www.w3.org/2000/svg">
<path d="M1.94886 23.0909H3.09943L7.05717 32.5938H7.15305L11.1108 23.0909H12.2614V34H11.3239V25.195H11.2386L7.55788 34H6.65234L2.97159 25.195H2.88636V34H1.94886V23.0909ZM16.6618 34V23.0909H22.9899V23.9858H17.6578V28.0927H22.6543V28.9876H17.6578V33.1051H23.0964V34H16.6618ZM27.068 34V23.0909H30.589C31.3631 23.0909 32.0094 23.2312 32.5279 23.5117C33.0499 23.7887 33.4423 24.174 33.7051 24.6676C33.9714 25.1577 34.1046 25.7205 34.1046 26.3562C34.1046 26.9918 33.9714 27.5529 33.7051 28.0394C33.4423 28.5259 33.0517 28.9059 32.5332 29.1793C32.0147 29.4528 31.372 29.5895 30.6049 29.5895H27.606V28.6786H30.5783C31.1465 28.6786 31.6188 28.5845 31.9952 28.3963C32.3752 28.2081 32.6575 27.94 32.8422 27.592C33.0304 27.244 33.1245 26.832 33.1245 26.3562C33.1245 25.8803 33.0304 25.4648 32.8422 25.1097C32.6539 24.7511 32.3699 24.4741 31.9899 24.2788C31.6135 24.0835 31.1376 23.9858 30.5623 23.9858H28.0641V34H27.068ZM31.878 29.0781L34.5627 34H33.4121L30.7541 29.0781H31.878ZM46.5749 26.5H45.5735C45.4989 26.1271 45.364 25.7827 45.1687 25.4666C44.9769 25.147 44.7354 24.8683 44.4442 24.6303C44.1531 24.3924 43.8228 24.2077 43.4535 24.0763C43.0842 23.945 42.6847 23.8793 42.255 23.8793C41.5661 23.8793 40.9375 24.0586 40.3693 24.4173C39.8047 24.7759 39.3519 25.3033 39.011 25.9993C38.6737 26.6918 38.505 27.5405 38.505 28.5455C38.505 29.5575 38.6737 30.4098 39.011 31.1023C39.3519 31.7947 39.8047 32.3203 40.3693 32.679C40.9375 33.0341 41.5661 33.2116 42.255 33.2116C42.6847 33.2116 43.0842 33.146 43.4535 33.0146C43.8228 32.8832 44.1531 32.7003 44.4442 32.4659C44.7354 32.228 44.9769 31.9492 45.1687 31.6296C45.364 31.31 45.4989 30.9638 45.5735 30.5909H46.5749C46.4862 31.0916 46.3192 31.5586 46.0742 31.9918C45.8327 32.4215 45.5238 32.7979 45.1474 33.1211C44.7745 33.4442 44.3448 33.6964 43.8583 33.8775C43.3718 34.0586 42.8374 34.1491 42.255 34.1491C41.3388 34.1491 40.5256 33.9201 39.8153 33.462C39.1051 33.0004 38.5476 32.3505 38.1428 31.5124C37.7415 30.6744 37.5408 29.6854 37.5408 28.5455C37.5408 27.4055 37.7415 26.4165 38.1428 25.5785C38.5476 24.7404 39.1051 24.0923 39.8153 23.6342C40.5256 23.1726 41.3388 22.9418 42.255 22.9418C42.8374 22.9418 43.3718 23.0323 43.8583 23.2134C44.3448 23.391 44.7745 23.6431 45.1474 23.9698C45.5238 24.293 45.8327 24.6694 46.0742 25.0991C46.3192 25.5288 46.4862 25.9957 46.5749 26.5ZM50.4147 34V23.0909H51.4108V28.0927H57.6004V23.0909H58.5965V34H57.6004V28.9876H51.4108V34H50.4147Z" fill="#333333"/>
<rect x="1.53125" y="1.03125" width="26.4375" height="17.4375" rx="1.96875" fill="#333333" stroke="#333333" stroke-width="0.5625"/>
<rect x="0.78125" y="0.28125" width="26.4375" height="17.4375" rx="1.96875" fill="white" stroke="#333333" stroke-width="0.5625"/>
<path d="M5.88423 10H5.19176L7.1946 4.54545H7.87642L9.87926 10H9.18679L7.55682 5.40838H7.5142L5.88423 10ZM6.13991 7.86932H8.93111V8.45526H6.13991V7.86932ZM11.2722 4.54545V10H10.6436V4.54545H11.2722ZM14.2025 5.90909V6.44176H12.0825V5.90909H14.2025ZM12.7004 4.92898H13.329V8.82812C13.329 9.00568 13.3547 9.13885 13.4062 9.22763C13.4595 9.31463 13.5269 9.37322 13.6086 9.40341C13.6921 9.43182 13.78 9.44602 13.8723 9.44602C13.9415 9.44602 13.9984 9.44247 14.0427 9.43537C14.0871 9.42649 14.1226 9.41939 14.1493 9.41406L14.2771 9.97869C14.2345 9.99467 14.175 10.0107 14.0987 10.0266C14.0223 10.0444 13.9256 10.0533 13.8084 10.0533C13.6308 10.0533 13.4568 10.0151 13.2864 9.93874C13.1177 9.86239 12.9774 9.74609 12.8655 9.58984C12.7555 9.43359 12.7004 9.23651 12.7004 8.99858V4.92898Z" fill="#333333"/>
<rect x="43.5312" y="1.03125" width="17.4375" height="17.4375" rx="1.96875" fill="#333333" stroke="#333333" stroke-width="0.5625"/>
<rect x="42.7812" y="0.28125" width="17.4375" height="17.4375" rx="1.96875" fill="white" stroke="#333333" stroke-width="0.5625"/>
<path d="M47.6605 4.54545H48.4489L50.3026 9.07315H50.3665L52.2202 4.54545H53.0085V10H52.3906V5.85582H52.3374L50.6328 10H50.0362L48.3317 5.85582H48.2784V10H47.6605V4.54545Z" fill="#333333"/>
<path d="M34.4326 12.1273V7.40678H35.0702V12.1273H34.4326ZM32.3893 10.084V9.45011H37.1135V10.084H32.3893Z" fill="#333333"/>
</svg>
